Coordinates
version=1
nRows=19
nColumns=24
inDegrees=yes

Units are S.I. units (second, meters, Newtons, ...)
If the header above contains a line with 'inDegrees', this indicates whether rotational values are in degrees (yes) or radians (no).

endheader
time	pelvis_tilt	pelvis_list	pelvis_rotation	pelvis_tx	pelvis_ty	pelvis_tz	hip_flexion_r	hip_adduction_r	hip_rotation_r	knee_angle_r	ankle_angle_r	subtalar_angle_r	mtp_angle_r	hip_flexion_l	hip_adduction_l	hip_rotation_l	knee_angle_l	ankle_angle_l	subtalar_angle_l	mtp_angle_l	lumbar_extension	lumbar_bending	lumbar_rotation
      3.70500000	     10.85095511	      2.85893365	    -10.65821995	      2.31554504	      0.88935505	     -0.26900666	    -21.47429878	     -9.72502175	     -6.44979102	    -39.18657866	     -7.27720001	      6.30859463	      0.00000000	     18.20871174	      5.86925760	     -6.80444306	    -24.26915409	     -6.60163788	    -15.31664722	      0.00000000	    -17.80117923	     -6.04856174	      8.46857106
      3.71000000	     11.08595965	      3.30870194	    -10.62739183	      2.32349445	      0.88976391	     -0.26969007	    -20.83605344	    -10.47621894	     -6.79314079	    -40.93170053	     -9.66501915	      5.43299266	      0.00000000	     17.83432860	      6.59810625	     -6.62251618	    -24.85695567	     -5.86459090	    -15.59798440	      0.00000000	    -17.87202243	     -6.59939793	      8.30513372
      3.71500000	     11.30721070	      3.65432736	    -10.56560873	      2.33123199	      0.89021176	     -0.27028654	    -20.16435660	    -11.05782489	     -7.00584415	    -42.65625769	    -11.96416973	      4.27867671	      0.00000000	     17.45241753	      7.20702342	     -6.42797422	    -25.44449979	     -5.00514511	    -15.87181341	      0.00000000	    -17.98406140	     -7.03077182	      8.07726845
      3.72000000	     11.49810809	      4.01475235	    -10.51233438	      2.33892580	      0.89067576	     -0.27078298	    -19.42542090	    -11.63665377	     -7.15333391	    -44.37901002	    -14.05953040	      3.18329756	      0.00000000	     17.05495321	      7.81090690	     -6.28742126	    -25.94322470	     -4.17293624	    -16.00640722	      0.00000000	    -18.05345863	     -7.48610734	      7.87394515
      3.72500000	     11.65906393	      4.34681563	    -10.45359598	      2.34651141	      0.89116063	     -0.27116848	    -18.62598834	    -12.14573254	     -7.21325101	    -46.09290239	    -15.91054421	      2.07419660	      0.00000000	     16.65252424	      8.36188950	     -6.18272703	    -26.38575871	     -3.33699638	    -16.04539632	      0.00000000	    -18.10359295	     -7.91739215	      7.67105470
      3.73000000	     11.78286599	      4.64654773	    -10.38382225	      2.35398710	      0.89166665	     -0.27144044	    -17.76162297	    -12.57350201	     -7.19287640	    -47.79386955	    -17.48156845	      0.96735673	      0.00000000	     16.25359407	      8.85279696	     -6.10949046	    -26.77488259	     -2.50146523	    -15.96830526	      0.00000000	    -18.12822975	     -8.31384739	      7.46491988
      3.73500000	     11.91074875	      4.96215247	    -10.34069023	      2.36137924	      0.89223026	     -0.27159689	    -16.86200999	    -13.00742412	     -7.10700622	    -49.49438734	    -18.69716053	      0.01081885	      0.00000000	     15.80285948	      9.33937227	     -6.10570531	    -27.06095448	     -1.76867403	    -15.85089007	      0.00000000	    -18.15494695	     -8.76112774	      7.25068208
      3.74000000	     11.92875864	      5.15684736	    -10.20887791	      2.36862519	      0.89275011	     -0.27166623	    -15.85795859	    -13.19792909	     -6.96185069	    -51.14832410	    -19.65420058	     -1.09813799	      0.00000000	     15.46285425	      9.65961762	     -6.06495730	    -27.39828743	     -0.86371399	    -15.49956123	      0.00000000	    -18.10611073	     -9.02805269	      7.04416777
      3.74500000	     11.96072396	      5.37142193	    -10.11087108	      2.37579224	      0.89334132	     -0.27163608	    -14.83080734	    -13.40609516	     -6.77058550	    -52.79365140	    -20.22954401	     -2.03547784	      0.00000000	     15.06015810	      9.98213087	     -6.09240760	    -27.62805265	     -0.07687962	    -15.12597558	      0.00000000	    -18.06950272	     -9.34495004	      6.82005413
      3.75000000	     11.96594430	      5.55892848	     -9.99450544	      2.38287757	      0.89396843	     -0.27153130	    -13.76563625	    -13.54400132	     -6.55679179	    -54.40356379	    -20.47691417	     -2.90030743	      0.00000000	     14.65434303	     10.25409421	     -6.13744079	    -27.80997414	      0.69068616	    -14.66815355	      0.00000000	    -18.01577488	     -9.63244921	      6.58737438
      3.75500000	     12.01438436	      5.75078584	     -9.91152473	      2.38986995	      0.89470633	     -0.27135126	    -12.71985171	    -13.68665501	     -6.30892999	    -55.97881637	    -20.40903443	     -3.62889580	      0.00000000	     14.15709718	     10.52251165	     -6.23155291	    -27.89124964	      1.30809040	    -14.27302851	      0.00000000	    -18.01941081	     -9.95670216	      6.32148927
      3.76000000	     11.93786890	      5.86459077	     -9.72065384	      2.39683110	      0.89537133	     -0.27117955	    -11.57802955	    -13.65632959	     -6.11222835	    -57.48319316	    -20.06105944	     -4.40284087	      0.00000000	     13.78677953	     10.67726575	     -6.26617198	    -28.01682194	      2.11821309	    -13.59476572	      0.00000000	    -17.89852523	    -10.13093621	      6.08236120
      3.76500000	     11.91534111	      5.98843848	     -9.56379412	      2.40372977	      0.89615965	     -0.27097631	    -10.47656878	    -13.65067127	     -5.90639633	    -58.93273417	    -19.46879349	     -5.04201296	      0.00000000	     13.31302104	     10.84327042	     -6.33566544	    -28.03918760	      2.77302948	    -13.00494967	      0.00000000	    -17.84238976	    -10.34268608	      5.81122273
      3.77000000	     11.93906068	      6.11257673	     -9.44007401	      2.41056878	      0.89706460	     -0.27075356	     -9.41016553	    -13.65625266	     -5.69061035	    -60.31730721	    -18.69753410	     -5.60481744	      0.00000000	     12.74620247	     11.01141892	     -6.43114579	    -27.96625741	      3.30233485	    -12.52297042	      0.00000000	    -17.84735392	    -10.57153100	      5.51078853
      3.77500000	     11.91149413	      6.20439137	     -9.26014161	      2.41740321	      0.89796716	     -0.27057703	     -8.31580643	    -13.59518037	     -5.53202051	    -61.61727101	    -17.74254225	     -6.11538791	      0.00000000	     12.21561094	     11.13522719	     -6.48560779	    -27.88355546	      3.88720542	    -11.89832702	      0.00000000	    -17.79475933	    -10.73237398	      5.19737330
      3.78000000	     11.88121950	      6.27131242	     -9.04392403	      2.42422596	      0.89893184	     -0.27045213	     -7.24427318	    -13.49632796	     -5.42716475	    -62.82026545	    -16.67497486	     -6.56116851	      0.00000000	     11.65727114	     11.23507796	     -6.49970622	    -27.75782512	      4.44206856	    -11.26624686	      0.00000000	    -17.75059611	    -10.84903027	      4.89141253
      3.78500000	     11.86948732	      6.32861902	     -8.82212306	      2.43102924	      0.89997256	     -0.27038324	     -6.20415811	    -13.39393002	     -5.35282271	    -63.93012957	    -15.52604658	     -6.94902430	      0.00000000	     11.04818093	     11.33183997	     -6.49123158	    -27.57422361	      4.94274338	    -10.67448067	      0.00000000	    -17.72598900	    -10.94611265	      4.57007640
      3.79000000	     11.87869048	      6.37627583	     -8.60620061	      2.43791719	      0.90114005	     -0.27034771	     -5.21567039	    -13.29115766	     -5.30446435	    -64.91581608	    -14.34302946	     -7.29626496	      0.00000000	     10.35700359	     11.42826682	     -6.46007262	    -27.28834080	      5.37484260	    -10.18728466	      0.00000000	    -17.70754756	    -11.01623925	      4.24740848
      3.79500000	     11.88250723	      6.41157905	     -8.35616507	      2.44471644	      0.90229566	     -0.27039925	     -4.22668300	    -13.17779828	     -5.30731300	    -65.82977671	    -13.14556638	     -7.53249170	      0.00000000	      9.67338815	     11.51335558	     -6.38853719	    -27.00334319	      5.80115471	     -9.63102362	      0.00000000	    -17.71101199	    -11.06715985	      3.88193572
